<svg xmlns="http://www.w3.org/2000/svg" width="442.46" height="442.459"><path d="M435.348 273.997c-4.557-2.622-10.226-2.229-14.354 1.048-20.028 15.93-39.037 27.203-56.867 33.956V25.369C364.127 11.406 352.788 0 338.76 0H26.024C11.996 0 .655 11.405.655 25.369v312.803c0 13.961 11.341 25.367 25.369 25.367h98.061c13.045 29.692 34.577 54.341 71.81 67.777 65.355 23.597 117.793 5.31 150.273-14.16 55.128-33.103 89.804-90.587 95.505-130.244.753-5.18-1.772-10.292-6.325-12.915zM332.957 395.131c-27.692 16.647-72.462 32.252-128.345 12.062-14.615-5.313-26.186-12.784-35.493-21.961-30.547-31.138-35.527-81.348-40.707-133.72-5.211-53.096-10.16-103.241-43.33-132.672-20.78-18.484-41.493-31.004-61.681-37.232V52.44c3.473.261 6.916.655 10.356 1.179 55.781 8.589 89.803 33.627 125.429 92.229 4.884 8.062 9.962 17.044 15.502 27.4a978.027 978.027 0 0111.536 22.419c6.949 14.028 14.454 29.822 23.532 49.617 29.301 64.043 68.991 96.492 117.925 96.492 11.732 0 23.926-1.969 36.443-5.899v.195c13.143-4.063 26.678-10.291 40.574-18.551-13.828 27.596-38.735 57.814-71.741 77.61z"/><path d="M289.795 348.395c-20.91-8.193-45.985-25.499-58.535-51.587-4.59 24.45 15.534 54.799-23.239 41.23-39.722-13.896-33.691 3.933-34.839 24.451 6.784 11.864 16.716 20.844 31.17 28.513 41.853 22.026 78.889 16.124 102.584 6.031 31.301-13.306 56.011-34.873 69.119-57.029-9.997 4.457-19.664 7.8-28.906 9.965-21.238 5.571-40.443 5.111-57.354-1.574z"/></svg>