<svg xmlns="http://www.w3.org/2000/svg" width="394.263" height="394.263"><path d="M364.015 187.592V26.466C364.015 11.839 352.146 0 337.551 0H44.858C30.261 0 18.393 11.839 18.393 26.466v292.66c0 14.598 11.869 26.468 26.465 26.468h46.737a197.564 197.564 0 0015.027 12.113c32.999 23.922 71.732 36.556 112.122 36.556 10.119 0 20.363-.798 30.422-2.393 33.674-5.337 63.85-21.593 86.605-46.276h1.78c14.598 0 26.464-11.872 26.464-26.468v-17.173c10.888-25.608 14.444-53.854 9.967-82.005a120.547 120.547 0 00-9.967-32.356zM57.554 276.746l12.022.642-6.686 10.214c-1.9-3.561-3.68-7.179-5.336-10.856zm57.441 69.982a1.093 1.093 0 00-.276-.154 196.965 196.965 0 01-12.115-9.69l15.242-5.367-2.851 15.211zm58.973 27.907l10.058-11.655 5.216 14.996c-5.154-.89-10.244-2.023-15.274-3.341zm79.675 2.421l5.889-16.529 10.243 12.085c-5.275 1.777-10.613 3.279-16.132 4.444zm79.245-49.314l-10.825 11.379-5.093-17.355 17.297 4.168c-.459.613-.89 1.226-1.379 1.808zm4.907-6.592l-28.799-6.992 8.802 29.964a135.154 135.154 0 01-42.506 26.464L257.505 349.7l-10.12 28.492c-.123.029-.244.029-.369.062a179.396 179.396 0 01-28.276 2.238c-7.88 0-15.642-.645-23.369-1.657l-9.323-26.68-17.941 20.82c-16.958-5.09-33.151-12.786-48.117-22.937l5.031-26.896-27.109 9.535c-12.574-11.713-23.308-25.084-31.925-39.712l13.402-20.55-24.349-1.349a179.907 179.907 0 01-11.408-40.45c-12.638-79.489 16.68-158.549 78.445-211.91l14.659-11.041h125.337l-37.994 11.041C137.138 43.914 80.311 130.796 94.847 222.491c5.274 33.182 23.184 62.313 50.356 82.066 21.681 15.732 47.136 24.041 73.664 24.041 6.653 0 13.37-.521 19.994-1.591 38.458-6.075 71.364-43.337 71.824-81.331.243-16.9-5.889-32.141-17.695-44.1-15.181-15.365-39.286-24.565-64.432-24.565-11.164 0-21.896 1.748-32.017 5.244-2.331.796-4.631 1.228-6.685 1.228-5.766 0-7.208-3.038-7.882-5.981-1.748-7.912 8.25-17.91 11.563-21.192a62.902 62.902 0 002.516-2.636c12.02-10.581 26.678-17.512 42.503-20.025 27.971-4.417 56.309 2.361 79.245 19.013 23 16.683 38.122 41.341 42.566 69.431 5.579 34.993-2.485 70.047-22.572 99.057z"/><path d="M233.157 139.047c-8.647 0-15.641 7.022-15.641 15.64 0 8.647 6.993 15.67 15.641 15.67s15.642-7.023 15.642-15.67c-.001-8.619-6.994-15.64-15.642-15.64zm0 25.791c-5.582 0-10.121-4.539-10.121-10.15 0-5.582 4.537-10.121 10.121-10.121 5.582 0 10.122 4.539 10.122 10.121-.001 5.61-4.54 10.15-10.122 10.15z"/></svg>