<svg xmlns="http://www.w3.org/2000/svg" width="495.801" height="495.801"><g fill="#090909"><path d="M415.431 28.666l-.56-.273c.521 27.735 4.663 151.591 36.79 81.455.001.001-23.744 28.395-36.23-81.182z"/><path d="M451.374 0H190.342c-11.694 0-21.157 9.52-21.157 21.171v261.06c0 4.429 1.448 8.53 3.829 11.979-13.02 7.44-27.011 11.049-42.315 11.049h-.014c-24.946 0-54.598-8.699-93.302-27.299l-13.309-6.4-.778 14.715c-.069 1.366-1.491 33.973 23.509 60.342 22.087 23.248 56.758 34.027 103.791 31.838-.327 22.976 2.544 75.057 32.416 108.977l7.317 8.37 7.386-8.265c1.189-1.365 28.993-33.425 52-141.905 23.223-9.409 82.317-42.287 82.317-42.287h119.342c11.679 0 21.169-9.465 21.169-21.115V21.171C472.543 9.519 463.052 0 451.374 0zM282.465 37.746l53.585-5.034c-29.321 27.903-58.59 99.787-58.59 99.787l-1.105-3.719-.356-1.15-.151-1.258-2.149-17.069-2.462-19.476-.244-1.914.26-1.916 2.298-16.958-1.899-15.155-1.614-12.801 12.427-3.337zm182.694 84.523c-8.451 7.056-23.168 25.001-27.642 37.583-38.921 108.976-198.214 168.771-199.788 169.37l-5.1 1.914-1.082 5.306c-15.071 73.198-32.318 110.948-41.657 127.413-23.922-38.184-19.259-94.423-19.203-95.078l1.04-11.655-11.679.984c-45.748 3.94-79.283-4.484-98.758-24.836-9.547-9.956-14.142-21.28-16.344-30.198 33.919 14.826 61.477 21.831 85.739 21.831h.014c61.08 0 103.243-43.93 141.004-146.888 6.65-18.164 14.474-35.67 23.483-52.519 0 0 52.303-116.689 105.023-119.589 21.911-.82 28.473 1.203 28.473 1.203 22.335 3.557 36.478 17.562 36.478 39.062v76.097z"/></g></svg>